<?xml version="1.0" encoding="UTF-8" standalone="no"?>
<!-- Created with Inkscape (http://www.inkscape.org/) -->
<svg
   xmlns:dc="http://purl.org/dc/elements/1.1/"
   xmlns:cc="http://creativecommons.org/ns#"
   xmlns:rdf="http://www.w3.org/1999/02/22-rdf-syntax-ns#"
   xmlns:svg="http://www.w3.org/2000/svg"
   xmlns="http://www.w3.org/2000/svg"
   xmlns:sodipodi="http://sodipodi.sourceforge.net/DTD/sodipodi-0.dtd"
   xmlns:inkscape="http://www.inkscape.org/namespaces/inkscape"
   id="svg2"
   sodipodi:version="0.32"
   inkscape:version="0.46"
   width="233"
   height="570"
   version="1.0"
   sodipodi:docname="soa-layers.svg"
   inkscape:output_extension="org.inkscape.output.svg.inkscape">
  <metadata
     id="metadata7">
    <rdf:RDF>
      <cc:Work
         rdf:about="">
        <dc:format>image/svg+xml</dc:format>
        <dc:type
           rdf:resource="http://purl.org/dc/dcmitype/StillImage" />
      </cc:Work>
    </rdf:RDF>
  </metadata>
  <defs
     id="defs5">
    <marker
       inkscape:stockid="Arrow2Lend"
       orient="auto"
       refY="0"
       refX="0"
       id="Arrow2Lend"
       style="overflow:visible">
      <path
         id="path3404"
         style="font-size:12px;fill-rule:evenodd;stroke-width:0.625;stroke-linejoin:round"
         d="M 8.7185878,4.0337352 L -2.2072895,0.016013256 L 8.7185884,-4.0017078 C 6.97309,-1.6296469 6.9831476,1.6157441 8.7185878,4.0337352 z"
         transform="matrix(-1.1,0,0,-1.1,-1.1,0)" />
    </marker>
    <inkscape:perspective
       sodipodi:type="inkscape:persp3d"
       inkscape:vp_x="0 : 526.18109 : 1"
       inkscape:vp_y="0 : 1000 : 0"
       inkscape:vp_z="744.09448 : 526.18109 : 1"
       inkscape:persp3d-origin="372.04724 : 350.78739 : 1"
       id="perspective9" />
  </defs>
  <sodipodi:namedview
     inkscape:window-height="718"
     inkscape:window-width="1024"
     inkscape:pageshadow="2"
     inkscape:pageopacity="0.0"
     guidetolerance="10.0"
     gridtolerance="10.0"
     objecttolerance="10.0"
     borderopacity="1.0"
     bordercolor="#666666"
     pagecolor="#ffffff"
     id="base"
     showgrid="false"
     inkscape:zoom="0.62085723"
     inkscape:cx="95.59206"
     inkscape:cy="511.79963"
     inkscape:window-x="-8"
     inkscape:window-y="-8"
     inkscape:current-layer="svg2" />
  <rect
     style="opacity:1;fill:#cccccc;fill-opacity:1;fill-rule:nonzero;stroke:#000000;stroke-width:2;stroke-linecap:round;stroke-linejoin:round;stroke-miterlimit:4;stroke-dasharray:none;stroke-opacity:1"
     id="rect3154"
     width="186.7829"
     height="59.223846"
     x="24.286118"
     y="31.700104"
     ry="7.2480431" />
  <rect
     style="opacity:1;fill:#cccccc;fill-opacity:1;fill-rule:nonzero;stroke:#000000;stroke-width:2;stroke-linecap:round;stroke-linejoin:round;stroke-miterlimit:4;stroke-dasharray:none;stroke-opacity:1"
     id="rect3376"
     width="186.7829"
     height="59.223846"
     x="25.798599"
     y="123.99289"
     ry="7.2480431" />
  <path
     style="fill:none;fill-rule:evenodd;stroke:#000000;stroke-width:1px;stroke-linecap:butt;stroke-linejoin:miter;marker-end:url(#Arrow2Lend);stroke-opacity:1"
     d="M 117.57937,89.983104 L 117.57937,119.78062"
     id="path3378"
     sodipodi:nodetypes="cc" />
  <rect
     style="opacity:1;fill:#cccccc;fill-opacity:1;fill-rule:nonzero;stroke:#000000;stroke-width:2;stroke-linecap:round;stroke-linejoin:round;stroke-miterlimit:4;stroke-dasharray:none;stroke-opacity:1"
     id="rect4158"
     width="190.00426"
     height="342.70288"
     x="23.382568"
     y="212.58012"
     ry="7.2480431" />
  <path
     style="fill:none;fill-rule:evenodd;stroke:#000000;stroke-width:0.96266454px;stroke-linecap:butt;stroke-linejoin:miter;marker-end:url(#Arrow2Lend);stroke-opacity:1"
     d="M 117.56167,181.76164 L 117.56167,209.2448"
     id="path4160"
     sodipodi:nodetypes="cc" />
  <path
     sodipodi:type="arc"
     style="opacity:1;fill:#cccccc;fill-opacity:1;fill-rule:nonzero;stroke:#000000;stroke-width:2;stroke-linecap:round;stroke-linejoin:round;stroke-miterlimit:4;stroke-dasharray:none;stroke-opacity:1"
     id="path4162"
     sodipodi:cx="289.11639"
     sodipodi:cy="383.12619"
     sodipodi:rx="23.354805"
     sodipodi:ry="21.744129"
     d="M 312.4712,383.12619 A 23.354805,21.744129 0 1 1 265.76159,383.12619 A 23.354805,21.744129 0 1 1 312.4712,383.12619 z"
     transform="matrix(0.9224645,0,0,0.9907953,-192.04731,-105.75528)" />
  <path
     sodipodi:type="arc"
     style="opacity:1;fill:#cccccc;fill-opacity:1;fill-rule:nonzero;stroke:#000000;stroke-width:2;stroke-linecap:round;stroke-linejoin:round;stroke-miterlimit:4;stroke-dasharray:none;stroke-opacity:1"
     id="path4164"
     sodipodi:cx="289.11639"
     sodipodi:cy="383.12619"
     sodipodi:rx="23.354805"
     sodipodi:ry="21.744129"
     d="M 312.4712,383.12619 A 23.354805,21.744129 0 1 1 265.76159,383.12619 A 23.354805,21.744129 0 1 1 312.4712,383.12619 z"
     transform="matrix(0.9224645,0,0,0.9907953,-102.41063,-106.80476)" />
  <path
     sodipodi:type="arc"
     style="opacity:1;fill:#cccccc;fill-opacity:1;fill-rule:nonzero;stroke:#000000;stroke-width:2;stroke-linecap:round;stroke-linejoin:round;stroke-miterlimit:4;stroke-dasharray:none;stroke-opacity:1"
     id="path4166"
     sodipodi:cx="289.11639"
     sodipodi:cy="383.12619"
     sodipodi:rx="23.354805"
     sodipodi:ry="21.744129"
     d="M 312.4712,383.12619 A 23.354805,21.744129 0 1 1 265.76159,383.12619 A 23.354805,21.744129 0 1 1 312.4712,383.12619 z"
     transform="matrix(0.9224645,0,0,0.9907953,-102.41063,-6.9428362)" />
  <path
     sodipodi:type="arc"
     style="opacity:1;fill:#cccccc;fill-opacity:1;fill-rule:nonzero;stroke:#000000;stroke-width:2;stroke-linecap:round;stroke-linejoin:round;stroke-miterlimit:4;stroke-dasharray:none;stroke-opacity:1"
     id="path4168"
     sodipodi:cx="289.11639"
     sodipodi:cy="383.12619"
     sodipodi:rx="23.354805"
     sodipodi:ry="21.744129"
     d="M 312.4712,383.12619 A 23.354805,21.744129 0 1 1 265.76159,383.12619 A 23.354805,21.744129 0 1 1 312.4712,383.12619 z"
     transform="matrix(0.9224645,0,0,0.9907953,-182.94444,31.713394)" />
  <path
     sodipodi:type="arc"
     style="opacity:1;fill:#cccccc;fill-opacity:1;fill-rule:nonzero;stroke:#000000;stroke-width:2;stroke-linecap:round;stroke-linejoin:round;stroke-miterlimit:4;stroke-dasharray:none;stroke-opacity:1"
     id="path4170"
     sodipodi:cx="289.11639"
     sodipodi:cy="383.12619"
     sodipodi:rx="23.354805"
     sodipodi:ry="21.744129"
     d="M 312.4712,383.12619 A 23.354805,21.744129 0 1 1 265.76159,383.12619 A 23.354805,21.744129 0 1 1 312.4712,383.12619 z"
     transform="matrix(0.9224645,0,0,0.9907953,-181.33377,128.35397)" />
  <path
     sodipodi:type="arc"
     style="opacity:1;fill:#cccccc;fill-opacity:1;fill-rule:nonzero;stroke:#000000;stroke-width:2;stroke-linecap:round;stroke-linejoin:round;stroke-miterlimit:4;stroke-dasharray:none;stroke-opacity:1"
     id="path4172"
     sodipodi:cx="289.11639"
     sodipodi:cy="383.12619"
     sodipodi:rx="23.354805"
     sodipodi:ry="21.744129"
     d="M 312.4712,383.12619 A 23.354805,21.744129 0 1 1 265.76159,383.12619 A 23.354805,21.744129 0 1 1 312.4712,383.12619 z"
     transform="matrix(0.9224645,0,0,0.9907953,-95.967927,123.52194)" />
  <path
     style="fill:none;fill-rule:evenodd;stroke:#000000;stroke-width:1px;stroke-linecap:butt;stroke-linejoin:miter;marker-end:url(#Arrow2Lend);stroke-opacity:1"
     d="M 94.881553,270.36652 L 142.71619,270.55212"
     id="path4174"
     sodipodi:nodetypes="cc" />
  <path
     style="fill:none;fill-rule:evenodd;stroke:#000000;stroke-width:1px;stroke-linecap:butt;stroke-linejoin:miter;marker-end:url(#Arrow2Lend);stroke-opacity:1"
     d="M 165.49459,294.28385 L 165.49459,350.27653"
     id="path4176"
     sodipodi:nodetypes="cc" />
  <path
     style="fill:none;fill-rule:evenodd;stroke:#000000;stroke-width:1px;stroke-linecap:butt;stroke-linejoin:miter;marker-end:url(#Arrow2Lend);stroke-opacity:1"
     d="M 145.56349,384.82799 L 105.13183,405.51415"
     id="path4178"
     sodipodi:nodetypes="cc" />
  <path
     style="fill:none;fill-rule:evenodd;stroke:#000000;stroke-width:1px;stroke-linecap:butt;stroke-linejoin:miter;marker-end:none;stroke-opacity:1"
     d="M 62.991793,404.75909 C 62.991793,404.75909 48.221223,378.75127 44.611333,338.57976 C 41.052213,298.97318 53.310973,278.52455 53.310973,278.52455"
     id="path4180"
     sodipodi:nodetypes="czc" />
  <path
     style="fill:none;fill-rule:evenodd;stroke:#000000;stroke-width:1px;stroke-linecap:butt;stroke-linejoin:miter;marker-end:url(#Arrow2Lend);stroke-opacity:1"
     d="M 95.054593,429.34145 L 155.13262,487.61197"
     id="path4184"
     sodipodi:nodetypes="cc" />
  <path
     style="fill:none;fill-rule:evenodd;stroke:#000000;stroke-width:1px;stroke-linecap:butt;stroke-linejoin:miter;marker-end:url(#Arrow2Lend);stroke-opacity:1"
     d="M 84.519573,433.04294 L 85.943223,486.18832"
     id="path4186"
     sodipodi:nodetypes="cc" />
  <path
     style="font-size:20px;font-style:normal;font-weight:normal;fill:#000000;fill-opacity:1;stroke:none;stroke-width:1px;stroke-linecap:butt;stroke-linejoin:miter;stroke-opacity:1;font-family:Bitstream Vera Sans"
     d="M 44.546875,59.462926 L 44.546875,48.009801 L 52.828125,48.009801 L 52.828125,49.361363 L 46.0625,49.361363 L 46.0625,52.869176 L 52.398438,52.869176 L 52.398438,54.212926 L 46.0625,54.212926 L 46.0625,58.061029 L 53.09375,58.111363 L 53.09375,59.462926 L 44.546875,59.462926 z M 55.023438,59.462926 L 55.023438,51.166051 L 56.289062,51.166051 L 56.289062,52.345738 C 56.898435,51.434288 57.778642,50.978559 58.929688,50.978551 C 59.429682,50.978559 59.889317,51.068403 60.308594,51.248082 C 60.727858,51.427777 61.04166,51.663454 61.25,51.955113 C 61.458326,52.246787 61.604159,52.593141 61.6875,52.994176 C 61.739576,53.254599 61.765617,53.710327 61.765625,54.361363 L 61.765625,59.462926 L 60.359375,59.462926 L 60.359375,54.416051 C 60.359369,53.84314 60.304681,53.414755 60.195312,53.130894 C 60.085931,52.847047 59.891921,52.620485 59.613281,52.451207 C 59.33463,52.281943 59.007807,52.197308 58.632812,52.197301 C 58.03385,52.197308 57.516924,52.387412 57.082031,52.767613 C 56.647133,53.147828 56.429685,53.869181 56.429688,54.931676 L 56.429688,59.462926 L 55.023438,59.462926 z M 67,58.205113 L 67.203125,59.447301 C 66.807288,59.530634 66.453121,59.572301 66.140625,59.572301 C 65.630206,59.572301 65.234373,59.491571 64.953125,59.330113 C 64.671873,59.168655 64.473957,58.956416 64.359375,58.693394 C 64.24479,58.430375 64.187499,57.87699 64.1875,57.033238 L 64.1875,52.259801 L 63.15625,52.259801 L 63.15625,51.166051 L 64.1875,51.166051 L 64.1875,49.111363 L 65.585938,48.267613 L 65.585938,51.166051 L 67,51.166051 L 67,52.259801 L 65.585938,52.259801 L 65.585938,57.111363 C 65.585935,57.512407 65.610674,57.770219 65.660156,57.884801 C 65.709633,57.999385 65.790362,58.090531 65.902344,58.158238 C 66.01432,58.225948 66.174476,58.259802 66.382812,58.259801 C 66.539059,58.259802 66.744788,58.241573 67,58.205113 L 67,58.205113 z M 74.046875,56.791051 L 75.5,56.970738 C 75.270825,57.819698 74.846347,58.478552 74.226562,58.947301 C 73.606765,59.416051 72.815099,59.650425 71.851562,59.650426 C 70.638018,59.650425 69.675779,59.276728 68.964844,58.529332 C 68.253905,57.781938 67.898437,56.733762 67.898438,55.384801 C 67.898437,53.988973 68.257812,52.905641 68.976562,52.134801 C 69.69531,51.363975 70.627601,50.978559 71.773438,50.978551 C 72.882807,50.978559 73.789056,51.356163 74.492188,52.111363 C 75.195305,52.866578 75.546867,53.929077 75.546875,55.298863 C 75.546867,55.382201 75.544263,55.5072 75.539062,55.673863 L 69.351562,55.673863 C 69.403644,56.585324 69.661456,57.28324 70.125,57.767613 C 70.588538,58.251989 71.166663,58.494177 71.859375,58.494176 C 72.374995,58.494177 72.815099,58.35876 73.179688,58.087926 C 73.544265,57.817094 73.833327,57.384803 74.046875,56.791051 L 74.046875,56.791051 z M 69.429688,54.517613 L 74.0625,54.517613 C 73.999993,53.819702 73.82291,53.296265 73.53125,52.947301 C 73.083328,52.405641 72.502599,52.134808 71.789062,52.134801 C 71.143225,52.134808 70.600257,52.350954 70.160156,52.783238 C 69.72005,53.215536 69.47656,53.79366 69.429688,54.517613 L 69.429688,54.517613 z M 77.257812,59.462926 L 77.257812,51.166051 L 78.523438,51.166051 L 78.523438,52.423863 C 78.846352,51.835329 79.144528,51.447309 79.417969,51.259801 C 79.691403,51.072309 79.992184,50.978559 80.320312,50.978551 C 80.794266,50.978559 81.276037,51.129601 81.765625,51.431676 L 81.28125,52.736363 C 80.937495,52.533245 80.593746,52.431683 80.25,52.431676 C 79.942705,52.431683 79.666663,52.52413 79.421875,52.709019 C 79.17708,52.893922 79.002601,53.150432 78.898438,53.478551 C 78.742185,53.978556 78.66406,54.525431 78.664062,55.119176 L 78.664062,59.462926 L 77.257812,59.462926 z M 82.617188,62.642613 L 82.617188,51.166051 L 83.898438,51.166051 L 83.898438,52.244176 C 84.200518,51.822308 84.541664,51.505902 84.921875,51.294957 C 85.30208,51.084028 85.763017,50.978559 86.304688,50.978551 C 87.013015,50.978559 87.638015,51.160851 88.179688,51.525426 C 88.721347,51.890017 89.130201,52.404339 89.40625,53.068394 C 89.682284,53.732463 89.820304,54.460326 89.820312,55.251988 C 89.820304,56.10095 89.667961,56.865272 89.363281,57.544957 C 89.058586,58.224646 88.615878,58.745478 88.035156,59.107457 C 87.454421,59.469436 86.843745,59.650425 86.203125,59.650426 C 85.734371,59.650425 85.313798,59.551467 84.941406,59.353551 C 84.569007,59.155634 84.263018,58.905635 84.023438,58.603551 L 84.023438,62.642613 L 82.617188,62.642613 z M 83.890625,55.361363 C 83.890623,56.429074 84.106768,57.218136 84.539062,57.728551 C 84.971351,58.238969 85.494788,58.494177 86.109375,58.494176 C 86.73437,58.494177 87.269526,58.229854 87.714844,57.701207 C 88.16015,57.172563 88.382806,56.353554 88.382812,55.244176 C 88.382806,54.186889 88.165358,53.395223 87.730469,52.869176 C 87.295567,52.343141 86.776036,52.080121 86.171875,52.080113 C 85.572913,52.080121 85.042965,52.360068 84.582031,52.919957 C 84.121091,53.479859 83.890623,54.29366 83.890625,55.361363 L 83.890625,55.361363 z M 91.507812,59.462926 L 91.507812,51.166051 L 92.773438,51.166051 L 92.773438,52.423863 C 93.096352,51.835329 93.394528,51.447309 93.667969,51.259801 C 93.941403,51.072309 94.242184,50.978559 94.570312,50.978551 C 95.044266,50.978559 95.526037,51.129601 96.015625,51.431676 L 95.53125,52.736363 C 95.187495,52.533245 94.843746,52.431683 94.5,52.431676 C 94.192705,52.431683 93.916663,52.52413 93.671875,52.709019 C 93.42708,52.893922 93.252601,53.150432 93.148438,53.478551 C 92.992185,53.978556 92.91406,54.525431 92.914062,55.119176 L 92.914062,59.462926 L 91.507812,59.462926 z M 96.875,49.626988 L 96.875,48.009801 L 98.28125,48.009801 L 98.28125,49.626988 L 96.875,49.626988 z M 96.875,59.462926 L 96.875,51.166051 L 98.28125,51.166051 L 98.28125,59.462926 L 96.875,59.462926 z M 99.867188,56.986363 L 101.25781,56.767613 C 101.33594,57.324907 101.55338,57.75199 101.91016,58.048863 C 102.26692,58.345739 102.76562,58.494177 103.40625,58.494176 C 104.05208,58.494177 104.53124,58.362666 104.84375,58.099644 C 105.15624,57.836625 105.31249,57.528032 105.3125,57.173863 C 105.31249,56.856157 105.17447,56.606158 104.89844,56.423863 C 104.70572,56.298866 104.22656,56.140012 103.46094,55.947301 C 102.42968,55.686888 101.71484,55.461628 101.31641,55.271519 C 100.91797,55.08142 100.61588,54.818399 100.41016,54.482457 C 100.20443,54.146525 100.10156,53.775431 100.10156,53.369176 C 100.10156,52.99939 100.1862,52.656943 100.35547,52.341832 C 100.52474,52.026735 100.75521,51.765017 101.04688,51.556676 C 101.26562,51.395225 101.5638,51.258507 101.94141,51.146519 C 102.31901,51.034549 102.72395,50.978559 103.15625,50.978551 C 103.80729,50.978559 104.3789,51.072309 104.87109,51.259801 C 105.36328,51.447309 105.72656,51.701215 105.96094,52.021519 C 106.19531,52.341839 106.35676,52.770224 106.44531,53.306676 L 105.07031,53.494176 C 105.00781,53.067099 104.82682,52.733766 104.52734,52.494176 C 104.22786,52.2546 103.80468,52.134808 103.25781,52.134801 C 102.61198,52.134808 102.15104,52.241579 101.875,52.455113 C 101.59896,52.668662 101.46094,52.918661 101.46094,53.205113 C 101.46094,53.387411 101.51823,53.551473 101.63281,53.697301 C 101.74739,53.848348 101.92708,53.973348 102.17188,54.072301 C 102.3125,54.124389 102.72656,54.244181 103.41406,54.431676 C 104.40885,54.697305 105.10286,54.914753 105.49609,55.084019 C 105.88932,55.253294 106.19791,55.499388 106.42188,55.822301 C 106.64583,56.145221 106.75781,56.546262 106.75781,57.025426 C 106.75781,57.494178 106.62109,57.935583 106.34766,58.349644 C 106.07421,58.763708 105.67968,59.08402 105.16406,59.310582 C 104.64843,59.537144 104.0651,59.650425 103.41406,59.650426 C 102.33593,59.650425 101.51432,59.426467 100.94922,58.978551 C 100.38411,58.530635 100.02344,57.866573 99.867188,56.986363 L 99.867188,56.986363 z M 114.10938,56.791051 L 115.5625,56.970738 C 115.33333,57.819698 114.90885,58.478552 114.28906,58.947301 C 113.66926,59.416051 112.8776,59.650425 111.91406,59.650426 C 110.70052,59.650425 109.73828,59.276728 109.02734,58.529332 C 108.31641,57.781938 107.96094,56.733762 107.96094,55.384801 C 107.96094,53.988973 108.32031,52.905641 109.03906,52.134801 C 109.75781,51.363975 110.6901,50.978559 111.83594,50.978551 C 112.94531,50.978559 113.85156,51.356163 114.55469,52.111363 C 115.2578,52.866578 115.60937,53.929077 115.60938,55.298863 C 115.60937,55.382201 115.60676,55.5072 115.60156,55.673863 L 109.41406,55.673863 C 109.46614,56.585324 109.72396,57.28324 110.1875,57.767613 C 110.65104,58.251989 111.22916,58.494177 111.92188,58.494176 C 112.43749,58.494177 112.8776,58.35876 113.24219,58.087926 C 113.60676,57.817094 113.89583,57.384803 114.10938,56.791051 L 114.10938,56.791051 z M 109.49219,54.517613 L 114.125,54.517613 C 114.06249,53.819702 113.88541,53.296265 113.59375,52.947301 C 113.14583,52.405641 112.5651,52.134808 111.85156,52.134801 C 111.20573,52.134808 110.66276,52.350954 110.22266,52.783238 C 109.78255,53.215536 109.53906,53.79366 109.49219,54.517613 L 109.49219,54.517613 z M 121.4375,55.783238 L 122.86719,55.658238 C 122.93489,56.231158 123.09245,56.70121 123.33984,57.068394 C 123.58724,57.435584 123.97135,57.732459 124.49219,57.959019 C 125.01302,58.185583 125.59895,58.298864 126.25,58.298863 C 126.82812,58.298864 127.33854,58.212927 127.78125,58.041051 C 128.22395,57.869177 128.55338,57.6335 128.76953,57.334019 C 128.98567,57.034543 129.09374,56.70772 129.09375,56.353551 C 129.09374,55.994179 128.98958,55.680377 128.78125,55.412144 C 128.57291,55.14392 128.22916,54.918659 127.75,54.736363 C 127.4427,54.616576 126.76301,54.430379 125.71094,54.177769 C 124.65885,53.925171 123.92187,53.68689 123.5,53.462926 C 122.95312,53.176474 122.54557,52.821005 122.27734,52.396519 C 122.00911,51.972048 121.875,51.496788 121.875,50.970738 C 121.875,50.392622 122.03906,49.852258 122.36719,49.349644 C 122.69531,48.847051 123.17448,48.465541 123.80469,48.205113 C 124.43489,47.944708 125.13541,47.8145 125.90625,47.814488 C 126.7552,47.8145 127.5039,47.951218 128.15234,48.224644 C 128.80077,48.498093 129.29947,48.900436 129.64844,49.431676 C 129.99739,49.962935 130.18489,50.564497 130.21094,51.236363 L 128.75781,51.345738 C 128.67968,50.621789 128.41536,50.074914 127.96484,49.705113 C 127.51432,49.335332 126.84895,49.150436 125.96875,49.150426 C 125.05208,49.150436 124.38411,49.318405 123.96484,49.654332 C 123.54557,49.990279 123.33593,50.395226 123.33594,50.869176 C 123.33593,51.280642 123.48437,51.619183 123.78125,51.884801 C 124.07291,52.150433 124.83463,52.422568 126.06641,52.701207 C 127.29817,52.979859 128.14322,53.223349 128.60156,53.431676 C 129.26822,53.738973 129.76041,54.128296 130.07812,54.599644 C 130.39582,55.071003 130.55468,55.613971 130.55469,56.228551 C 130.55468,56.837928 130.3802,57.412146 130.03125,57.951207 C 129.68228,58.49027 129.18098,58.909541 128.52734,59.209019 C 127.87369,59.508498 127.13801,59.658238 126.32031,59.658238 C 125.28385,59.658238 124.41536,59.507196 123.71484,59.205113 C 123.01432,58.90303 122.46484,58.448604 122.06641,57.841832 C 121.66797,57.235063 121.45833,56.548866 121.4375,55.783238 L 121.4375,55.783238 z M 138.14062,56.791051 L 139.59375,56.970738 C 139.36458,57.819698 138.9401,58.478552 138.32031,58.947301 C 137.70051,59.416051 136.90885,59.650425 135.94531,59.650426 C 134.73177,59.650425 133.76953,59.276728 133.05859,58.529332 C 132.34766,57.781938 131.99219,56.733762 131.99219,55.384801 C 131.99219,53.988973 132.35156,52.905641 133.07031,52.134801 C 133.78906,51.363975 134.72135,50.978559 135.86719,50.978551 C 136.97656,50.978559 137.88281,51.356163 138.58594,52.111363 C 139.28905,52.866578 139.64062,53.929077 139.64062,55.298863 C 139.64062,55.382201 139.63801,55.5072 139.63281,55.673863 L 133.44531,55.673863 C 133.49739,56.585324 133.75521,57.28324 134.21875,57.767613 C 134.68229,58.251989 135.26041,58.494177 135.95312,58.494176 C 136.46874,58.494177 136.90885,58.35876 137.27344,58.087926 C 137.63801,57.817094 137.92708,57.384803 138.14062,56.791051 L 138.14062,56.791051 z M 133.52344,54.517613 L 138.15625,54.517613 C 138.09374,53.819702 137.91666,53.296265 137.625,52.947301 C 137.17708,52.405641 136.59635,52.134808 135.88281,52.134801 C 135.23698,52.134808 134.69401,52.350954 134.25391,52.783238 C 133.8138,53.215536 133.57031,53.79366 133.52344,54.517613 L 133.52344,54.517613 z M 141.35156,59.462926 L 141.35156,51.166051 L 142.61719,51.166051 L 142.61719,52.423863 C 142.9401,51.835329 143.23828,51.447309 143.51172,51.259801 C 143.78515,51.072309 144.08593,50.978559 144.41406,50.978551 C 144.88802,50.978559 145.36979,51.129601 145.85938,51.431676 L 145.375,52.736363 C 145.03125,52.533245 144.6875,52.431683 144.34375,52.431676 C 144.03645,52.431683 143.76041,52.52413 143.51562,52.709019 C 143.27083,52.893922 143.09635,53.150432 142.99219,53.478551 C 142.83593,53.978556 142.75781,54.525431 142.75781,55.119176 L 142.75781,59.462926 L 141.35156,59.462926 z M 149.01562,59.462926 L 145.85938,51.166051 L 147.34375,51.166051 L 149.125,56.134801 C 149.3177,56.671262 149.49479,57.228553 149.65625,57.806676 C 149.78125,57.369178 149.95572,56.843137 150.17969,56.228551 L 152.02344,51.166051 L 153.46875,51.166051 L 150.32812,59.462926 L 149.01562,59.462926 z M 154.71875,49.626988 L 154.71875,48.009801 L 156.125,48.009801 L 156.125,49.626988 L 154.71875,49.626988 z M 154.71875,59.462926 L 154.71875,51.166051 L 156.125,51.166051 L 156.125,59.462926 L 154.71875,59.462926 z M 163.6875,56.423863 L 165.07031,56.603551 C 164.91926,57.556678 164.53254,58.302771 163.91016,58.841832 C 163.28775,59.380894 162.52343,59.650425 161.61719,59.650426 C 160.48177,59.650425 159.56901,59.279332 158.87891,58.537144 C 158.1888,57.794959 157.84375,56.731158 157.84375,55.345738 C 157.84375,54.44991 157.99219,53.666056 158.28906,52.994176 C 158.58594,52.322308 159.03776,51.818402 159.64453,51.482457 C 160.2513,51.146528 160.91145,50.978559 161.625,50.978551 C 162.52604,50.978559 163.26301,51.206423 163.83594,51.662144 C 164.40885,52.117881 164.77603,52.765016 164.9375,53.603551 L 163.57031,53.814488 C 163.4401,53.257203 163.20963,52.837932 162.87891,52.556676 C 162.54817,52.275433 162.14843,52.134808 161.67969,52.134801 C 160.97135,52.134808 160.39583,52.388714 159.95312,52.896519 C 159.51041,53.404338 159.28906,54.207723 159.28906,55.306676 C 159.28906,56.421262 159.5026,57.231157 159.92969,57.736363 C 160.35677,58.241573 160.91406,58.494177 161.60156,58.494176 C 162.15364,58.494177 162.61458,58.324906 162.98438,57.986363 C 163.35416,57.647823 163.58854,57.12699 163.6875,56.423863 L 163.6875,56.423863 z M 171.95312,56.791051 L 173.40625,56.970738 C 173.17708,57.819698 172.7526,58.478552 172.13281,58.947301 C 171.51301,59.416051 170.72135,59.650425 169.75781,59.650426 C 168.54427,59.650425 167.58203,59.276728 166.87109,58.529332 C 166.16016,57.781938 165.80469,56.733762 165.80469,55.384801 C 165.80469,53.988973 166.16406,52.905641 166.88281,52.134801 C 167.60156,51.363975 168.53385,50.978559 169.67969,50.978551 C 170.78906,50.978559 171.69531,51.356163 172.39844,52.111363 C 173.10155,52.866578 173.45312,53.929077 173.45312,55.298863 C 173.45312,55.382201 173.45051,55.5072 173.44531,55.673863 L 167.25781,55.673863 C 167.30989,56.585324 167.56771,57.28324 168.03125,57.767613 C 168.49479,58.251989 169.07291,58.494177 169.76562,58.494176 C 170.28124,58.494177 170.72135,58.35876 171.08594,58.087926 C 171.45051,57.817094 171.73958,57.384803 171.95312,56.791051 L 171.95312,56.791051 z M 167.33594,54.517613 L 171.96875,54.517613 C 171.90624,53.819702 171.72916,53.296265 171.4375,52.947301 C 170.98958,52.405641 170.40885,52.134808 169.69531,52.134801 C 169.04948,52.134808 168.50651,52.350954 168.06641,52.783238 C 167.6263,53.215536 167.38281,53.79366 167.33594,54.517613 L 167.33594,54.517613 z M 179.73438,59.462926 L 179.73438,48.009801 L 181.25,48.009801 L 181.25,58.111363 L 186.89062,58.111363 L 186.89062,59.462926 L 179.73438,59.462926 z M 193.9375,58.439488 C 193.41666,58.882197 192.91536,59.194697 192.43359,59.376988 C 191.95182,59.55928 191.43489,59.650425 190.88281,59.650426 C 189.97135,59.650425 189.27083,59.427769 188.78125,58.982457 C 188.29167,58.537145 188.04687,57.968135 188.04688,57.275426 C 188.04687,56.869178 188.13932,56.498085 188.32422,56.162144 C 188.50911,55.826211 188.7513,55.55668 189.05078,55.353551 C 189.35026,55.15043 189.6875,54.996784 190.0625,54.892613 C 190.33854,54.819701 190.75521,54.749389 191.3125,54.681676 C 192.44791,54.546264 193.28385,54.384806 193.82031,54.197301 C 193.82551,54.004598 193.82812,53.882202 193.82812,53.830113 C 193.82812,53.257203 193.69531,52.853557 193.42969,52.619176 C 193.07031,52.301474 192.53645,52.14262 191.82812,52.142613 C 191.16666,52.14262 190.67838,52.258506 190.36328,52.490269 C 190.04817,52.722047 189.8151,53.132203 189.66406,53.720738 L 188.28906,53.533238 C 188.41406,52.944703 188.61979,52.469443 188.90625,52.107457 C 189.19271,51.745485 189.60677,51.46684 190.14844,51.271519 C 190.6901,51.076215 191.3177,50.978559 192.03125,50.978551 C 192.73958,50.978559 193.3151,51.061892 193.75781,51.228551 C 194.20051,51.395225 194.52603,51.604861 194.73438,51.857457 C 194.9427,52.110068 195.08853,52.429078 195.17188,52.814488 C 195.21874,53.054078 195.24218,53.486369 195.24219,54.111363 L 195.24219,55.986363 C 195.24218,57.293657 195.27213,58.120479 195.33203,58.466832 C 195.39192,58.813187 195.51041,59.145218 195.6875,59.462926 L 194.21875,59.462926 C 194.07291,59.171259 193.97916,58.830114 193.9375,58.439488 L 193.9375,58.439488 z M 193.82031,55.298863 C 193.30989,55.5072 192.54427,55.684284 191.52344,55.830113 C 190.94531,55.91345 190.53646,56.0072 190.29688,56.111363 C 190.05729,56.215533 189.87239,56.367877 189.74219,56.568394 C 189.61198,56.768918 189.54687,56.991574 189.54688,57.236363 C 189.54687,57.611365 189.6888,57.923865 189.97266,58.173863 C 190.25651,58.423864 190.67187,58.548864 191.21875,58.548863 C 191.76041,58.548864 192.24218,58.430375 192.66406,58.193394 C 193.08593,57.956417 193.39583,57.632198 193.59375,57.220738 C 193.74479,56.903032 193.82031,56.434283 193.82031,55.814488 L 193.82031,55.298863 z M 197.36719,62.658238 L 197.21094,61.337926 C 197.51823,61.421257 197.78646,61.462924 198.01562,61.462926 C 198.32812,61.462924 198.57812,61.41084 198.76562,61.306676 C 198.95312,61.202507 199.10677,61.056674 199.22656,60.869176 C 199.3151,60.728549 199.45833,60.379591 199.65625,59.822301 C 199.68229,59.744175 199.72395,59.629592 199.78125,59.478551 L 196.63281,51.166051 L 198.14844,51.166051 L 199.875,55.970738 C 200.09895,56.580116 200.29948,57.22074 200.47656,57.892613 C 200.63802,57.246782 200.83072,56.616574 201.05469,56.001988 L 202.82812,51.166051 L 204.23438,51.166051 L 201.07812,59.603551 C 200.73958,60.515008 200.47656,61.142611 200.28906,61.486363 C 200.03906,61.949902 199.7526,62.289746 199.42969,62.505894 C 199.10677,62.722037 198.72135,62.83011 198.27344,62.830113 C 198.0026,62.83011 197.70052,62.772818 197.36719,62.658238 L 197.36719,62.658238 z M 211.10938,56.791051 L 212.5625,56.970738 C 212.33333,57.819698 211.90885,58.478552 211.28906,58.947301 C 210.66926,59.416051 209.8776,59.650425 208.91406,59.650426 C 207.70052,59.650425 206.73828,59.276728 206.02734,58.529332 C 205.31641,57.781938 204.96094,56.733762 204.96094,55.384801 C 204.96094,53.988973 205.32031,52.905641 206.03906,52.134801 C 206.75781,51.363975 207.6901,50.978559 208.83594,50.978551 C 209.94531,50.978559 210.85156,51.356163 211.55469,52.111363 C 212.2578,52.866578 212.60937,53.929077 212.60938,55.298863 C 212.60937,55.382201 212.60676,55.5072 212.60156,55.673863 L 206.41406,55.673863 C 206.46614,56.585324 206.72396,57.28324 207.1875,57.767613 C 207.65104,58.251989 208.22916,58.494177 208.92188,58.494176 C 209.43749,58.494177 209.8776,58.35876 210.24219,58.087926 C 210.60676,57.817094 210.89583,57.384803 211.10938,56.791051 L 211.10938,56.791051 z M 206.49219,54.517613 L 211.125,54.517613 C 211.06249,53.819702 210.88541,53.296265 210.59375,52.947301 C 210.14583,52.405641 209.5651,52.134808 208.85156,52.134801 C 208.20573,52.134808 207.66276,52.350954 207.22266,52.783238 C 206.78255,53.215536 206.53906,53.79366 206.49219,54.517613 L 206.49219,54.517613 z M 214.32031,59.462926 L 214.32031,51.166051 L 215.58594,51.166051 L 215.58594,52.423863 C 215.90885,51.835329 216.20703,51.447309 216.48047,51.259801 C 216.7539,51.072309 217.05468,50.978559 217.38281,50.978551 C 217.85677,50.978559 218.33854,51.129601 218.82812,51.431676 L 218.34375,52.736363 C 218,52.533245 217.65625,52.431683 217.3125,52.431676 C 217.0052,52.431683 216.72916,52.52413 216.48438,52.709019 C 216.23958,52.893922 216.0651,53.150432 215.96094,53.478551 C 215.80468,53.978556 215.72656,54.525431 215.72656,55.119176 L 215.72656,59.462926 L 214.32031,59.462926 z"
     id="flowRoot4232"
     transform="translate(-13.667041,6.8335206)"
     sodipodi:nodetypes="cccccccccccccccccssssccccsssscccccsssccccccccccccsssccccssssssssccsssccccsssccccccssccssscccccccsssssssssccccsssssssccccccssccssscccccccccccccccsssssssssssssssccssssssssssssssccccssssssssccsssccccsssccccsssssssssssssssssccssssssssssssssccccssssssssccsssccccsssccccccssccssscccccccccccccccccccccccccssssssssccsssssssccccssssssssccsssccccsssccccccccccsssssssscssssccssssssccscccccssssssssccccsssscccccccccsssccccssssssssccsssccccsssccccccssccsssccc" />
  <path
     transform="translate(-3.2969127,98.97186)"
     style="font-size:20px;font-style:normal;font-weight:normal;fill:#000000;fill-opacity:1;stroke:none;stroke-width:1px;stroke-linecap:butt;stroke-linejoin:miter;stroke-opacity:1;font-family:Bitstream Vera Sans"
     d="M 44.515625,59.462926 L 44.515625,48.009801 L 48.460938,48.009801 C 49.351556,48.009812 50.031243,48.0645 50.5,48.173863 C 51.156242,48.324916 51.716137,48.598353 52.179688,48.994176 C 52.783845,49.504602 53.235667,50.156945 53.535156,50.951207 C 53.834625,51.745485 53.984364,52.653037 53.984375,53.673863 C 53.984364,54.54366 53.882802,55.314492 53.679688,55.986363 C 53.476552,56.658241 53.216136,57.21423 52.898438,57.654332 C 52.58072,58.094437 52.233064,58.440791 51.855469,58.693394 C 51.477856,58.945999 51.022128,59.137405 50.488281,59.267613 C 49.95442,59.397822 49.34114,59.462926 48.648438,59.462926 L 44.515625,59.462926 z M 46.03125,58.161697 L 48.476562,58.111363 C 49.231765,58.111364 49.824212,58.041052 50.253906,57.900426 C 50.683586,57.759802 51.026034,57.561886 51.28125,57.306676 C 51.640617,56.947303 51.920564,56.464231 52.121094,55.857457 C 52.321606,55.25069 52.421866,54.515014 52.421875,53.650426 C 52.421866,52.452516 52.225251,51.531944 51.832031,50.888707 C 51.438794,50.245487 50.96093,49.814498 50.398438,49.595738 C 49.992181,49.439498 49.338536,49.361373 48.4375,49.361363 L 46.03125,49.361363 L 46.03125,58.161697 z M 55.375,55.314488 C 55.374999,53.778035 55.802082,52.640016 56.65625,51.900426 C 57.369789,51.28585 58.23958,50.978559 59.265625,50.978551 C 60.406244,50.978559 61.338535,51.352257 62.0625,52.099644 C 62.78645,52.847047 63.148429,53.879598 63.148438,55.197301 C 63.148429,56.265012 62.988273,57.104855 62.667969,57.716832 C 62.347649,58.328812 61.881503,58.804072 61.269531,59.142613 C 60.657546,59.481155 59.989578,59.650425 59.265625,59.650426 C 58.104163,59.650425 57.165362,59.27803 56.449219,58.533238 C 55.733072,57.788448 55.374999,56.715533 55.375,55.314488 L 55.375,55.314488 z M 56.820312,55.314488 C 56.820311,56.376991 57.052081,57.172563 57.515625,57.701207 C 57.979164,58.229854 58.562496,58.494177 59.265625,58.494176 C 59.963537,58.494177 60.544265,58.228552 61.007812,57.697301 C 61.471348,57.166053 61.703118,56.356158 61.703125,55.267613 C 61.703118,54.241577 61.470045,53.464234 61.003906,52.935582 C 60.537755,52.406943 59.958328,52.14262 59.265625,52.142613 C 58.562496,52.14262 57.979164,52.405641 57.515625,52.931676 C 57.052081,53.457723 56.820311,54.251993 56.820312,55.314488 L 56.820312,55.314488 z M 64.804688,59.462926 L 64.804688,51.166051 L 66.0625,51.166051 L 66.0625,52.330113 C 66.322914,51.923871 66.669268,51.597048 67.101562,51.349644 C 67.53385,51.102257 68.026037,50.978559 68.578125,50.978551 C 69.192703,50.978559 69.696609,51.106163 70.089844,51.361363 C 70.483066,51.616579 70.76041,51.97335 70.921875,52.431676 C 71.578117,51.462934 72.432283,50.978559 73.484375,50.978551 C 74.307281,50.978559 74.940093,51.206423 75.382812,51.662144 C 75.825509,52.117881 76.046863,52.819703 76.046875,53.767613 L 76.046875,59.462926 L 74.648438,59.462926 L 74.648438,54.236363 C 74.648427,53.673869 74.602854,53.268921 74.511719,53.021519 C 74.420562,52.77413 74.255198,52.574912 74.015625,52.423863 C 73.776032,52.272829 73.494782,52.197308 73.171875,52.197301 C 72.588533,52.197308 72.104158,52.391318 71.71875,52.779332 C 71.333326,53.167359 71.140618,53.788452 71.140625,54.642613 L 71.140625,59.462926 L 69.734375,59.462926 L 69.734375,54.072301 C 69.734369,53.447307 69.619786,52.978557 69.390625,52.666051 C 69.161453,52.353558 68.786453,52.197308 68.265625,52.197301 C 67.869788,52.197308 67.503902,52.301474 67.167969,52.509801 C 66.832028,52.718141 66.588539,53.022828 66.4375,53.423863 C 66.286456,53.82491 66.210935,54.403035 66.210938,55.158238 L 66.210938,59.462926 L 64.804688,59.462926 z M 83.5625,58.439488 C 83.041661,58.882197 82.540359,59.194697 82.058594,59.376988 C 81.576818,59.55928 81.059892,59.650425 80.507812,59.650426 C 79.596352,59.650425 78.895832,59.427769 78.40625,58.982457 C 77.916666,58.537145 77.671874,57.968135 77.671875,57.275426 C 77.671874,56.869178 77.764322,56.498085 77.949219,56.162144 C 78.134114,55.826211 78.376301,55.55668 78.675781,55.353551 C 78.975259,55.15043 79.312498,54.996784 79.6875,54.892613 C 79.963539,54.819701 80.380205,54.749389 80.9375,54.681676 C 82.072912,54.546264 82.908848,54.384806 83.445312,54.197301 C 83.450514,54.004598 83.453119,53.882202 83.453125,53.830113 C 83.453119,53.257203 83.320306,52.853557 83.054688,52.619176 C 82.695307,52.301474 82.161453,52.14262 81.453125,52.142613 C 80.791663,52.14262 80.303382,52.258506 79.988281,52.490269 C 79.673175,52.722047 79.440102,53.132203 79.289062,53.720738 L 77.914062,53.533238 C 78.039062,52.944703 78.244791,52.469443 78.53125,52.107457 C 78.817707,51.745485 79.231769,51.46684 79.773438,51.271519 C 80.315101,51.076215 80.942704,50.978559 81.65625,50.978551 C 82.364578,50.978559 82.940098,51.061892 83.382812,51.228551 C 83.825514,51.395225 84.151035,51.604861 84.359375,51.857457 C 84.567701,52.110068 84.713534,52.429078 84.796875,52.814488 C 84.843742,53.054078 84.86718,53.486369 84.867188,54.111363 L 84.867188,55.986363 C 84.86718,57.293657 84.897128,58.120479 84.957031,58.466832 C 85.016919,58.813187 85.135409,59.145218 85.3125,59.462926 L 83.84375,59.462926 C 83.69791,59.171259 83.60416,58.830114 83.5625,58.439488 L 83.5625,58.439488 z M 83.445312,55.298863 C 82.93489,55.5072 82.169266,55.684284 81.148438,55.830113 C 80.570309,55.91345 80.161455,56.0072 79.921875,56.111363 C 79.682289,56.215533 79.497393,56.367877 79.367188,56.568394 C 79.236977,56.768918 79.171873,56.991574 79.171875,57.236363 C 79.171873,57.611365 79.3138,57.923865 79.597656,58.173863 C 79.881508,58.423864 80.296872,58.548864 80.84375,58.548863 C 81.385412,58.548864 81.867183,58.430375 82.289062,58.193394 C 82.710932,57.956417 83.020827,57.632198 83.21875,57.220738 C 83.369785,56.903032 83.445306,56.434283 83.445312,55.814488 L 83.445312,55.298863 z M 87.0625,49.626988 L 87.0625,48.009801 L 88.46875,48.009801 L 88.46875,49.626988 L 87.0625,49.626988 z M 87.0625,59.462926 L 87.0625,51.166051 L 88.46875,51.166051 L 88.46875,59.462926 L 87.0625,59.462926 z M 90.617188,59.462926 L 90.617188,51.166051 L 91.882812,51.166051 L 91.882812,52.345738 C 92.492185,51.434288 93.372392,50.978559 94.523438,50.978551 C 95.023432,50.978559 95.483067,51.068403 95.902344,51.248082 C 96.321608,51.427777 96.63541,51.663454 96.84375,51.955113 C 97.052076,52.246787 97.197909,52.593141 97.28125,52.994176 C 97.333326,53.254599 97.359367,53.710327 97.359375,54.361363 L 97.359375,59.462926 L 95.953125,59.462926 L 95.953125,54.416051 C 95.953119,53.84314 95.898431,53.414755 95.789062,53.130894 C 95.679681,52.847047 95.485671,52.620485 95.207031,52.451207 C 94.92838,52.281943 94.601557,52.197308 94.226562,52.197301 C 93.6276,52.197308 93.110674,52.387412 92.675781,52.767613 C 92.240883,53.147828 92.023435,53.869181 92.023438,54.931676 L 92.023438,59.462926 L 90.617188,59.462926 z M 103.625,55.783238 L 105.05469,55.658238 C 105.12239,56.231158 105.27995,56.70121 105.52734,57.068394 C 105.77474,57.435584 106.15885,57.732459 106.67969,57.959019 C 107.20052,58.185583 107.78645,58.298864 108.4375,58.298863 C 109.01562,58.298864 109.52604,58.212927 109.96875,58.041051 C 110.41145,57.869177 110.74088,57.6335 110.95703,57.334019 C 111.17317,57.034543 111.28124,56.70772 111.28125,56.353551 C 111.28124,55.994179 111.17708,55.680377 110.96875,55.412144 C 110.76041,55.14392 110.41666,54.918659 109.9375,54.736363 C 109.6302,54.616576 108.95051,54.430379 107.89844,54.177769 C 106.84635,53.925171 106.10937,53.68689 105.6875,53.462926 C 105.14062,53.176474 104.73307,52.821005 104.46484,52.396519 C 104.19661,51.972048 104.0625,51.496788 104.0625,50.970738 C 104.0625,50.392622 104.22656,49.852258 104.55469,49.349644 C 104.88281,48.847051 105.36198,48.465541 105.99219,48.205113 C 106.62239,47.944708 107.32291,47.8145 108.09375,47.814488 C 108.9427,47.8145 109.6914,47.951218 110.33984,48.224644 C 110.98827,48.498093 111.48697,48.900436 111.83594,49.431676 C 112.18489,49.962935 112.37239,50.564497 112.39844,51.236363 L 110.94531,51.345738 C 110.86718,50.621789 110.60286,50.074914 110.15234,49.705113 C 109.70182,49.335332 109.03645,49.150436 108.15625,49.150426 C 107.23958,49.150436 106.57161,49.318405 106.15234,49.654332 C 105.73307,49.990279 105.52343,50.395226 105.52344,50.869176 C 105.52343,51.280642 105.67187,51.619183 105.96875,51.884801 C 106.26041,52.150433 107.02213,52.422568 108.25391,52.701207 C 109.48567,52.979859 110.33072,53.223349 110.78906,53.431676 C 111.45572,53.738973 111.94791,54.128296 112.26562,54.599644 C 112.58332,55.071003 112.74218,55.613971 112.74219,56.228551 C 112.74218,56.837928 112.5677,57.412146 112.21875,57.951207 C 111.86978,58.49027 111.36848,58.909541 110.71484,59.209019 C 110.06119,59.508498 109.32551,59.658238 108.50781,59.658238 C 107.47135,59.658238 106.60286,59.507196 105.90234,59.205113 C 105.20182,58.90303 104.65234,58.448604 104.25391,57.841832 C 103.85547,57.235063 103.64583,56.548866 103.625,55.783238 L 103.625,55.783238 z M 120.32812,56.791051 L 121.78125,56.970738 C 121.55208,57.819698 121.1276,58.478552 120.50781,58.947301 C 119.88801,59.416051 119.09635,59.650425 118.13281,59.650426 C 116.91927,59.650425 115.95703,59.276728 115.24609,58.529332 C 114.53516,57.781938 114.17969,56.733762 114.17969,55.384801 C 114.17969,53.988973 114.53906,52.905641 115.25781,52.134801 C 115.97656,51.363975 116.90885,50.978559 118.05469,50.978551 C 119.16406,50.978559 120.07031,51.356163 120.77344,52.111363 C 121.47655,52.866578 121.82812,53.929077 121.82812,55.298863 C 121.82812,55.382201 121.82551,55.5072 121.82031,55.673863 L 115.63281,55.673863 C 115.68489,56.585324 115.94271,57.28324 116.40625,57.767613 C 116.86979,58.251989 117.44791,58.494177 118.14062,58.494176 C 118.65624,58.494177 119.09635,58.35876 119.46094,58.087926 C 119.82551,57.817094 120.11458,57.384803 120.32812,56.791051 L 120.32812,56.791051 z M 115.71094,54.517613 L 120.34375,54.517613 C 120.28124,53.819702 120.10416,53.296265 119.8125,52.947301 C 119.36458,52.405641 118.78385,52.134808 118.07031,52.134801 C 117.42448,52.134808 116.88151,52.350954 116.44141,52.783238 C 116.0013,53.215536 115.75781,53.79366 115.71094,54.517613 L 115.71094,54.517613 z M 123.53906,59.462926 L 123.53906,51.166051 L 124.80469,51.166051 L 124.80469,52.423863 C 125.1276,51.835329 125.42578,51.447309 125.69922,51.259801 C 125.97265,51.072309 126.27343,50.978559 126.60156,50.978551 C 127.07552,50.978559 127.55729,51.129601 128.04688,51.431676 L 127.5625,52.736363 C 127.21875,52.533245 126.875,52.431683 126.53125,52.431676 C 126.22395,52.431683 125.94791,52.52413 125.70312,52.709019 C 125.45833,52.893922 125.28385,53.150432 125.17969,53.478551 C 125.02343,53.978556 124.94531,54.525431 124.94531,55.119176 L 124.94531,59.462926 L 123.53906,59.462926 z M 131.20312,59.462926 L 128.04688,51.166051 L 129.53125,51.166051 L 131.3125,56.134801 C 131.5052,56.671262 131.68229,57.228553 131.84375,57.806676 C 131.96875,57.369178 132.14322,56.843137 132.36719,56.228551 L 134.21094,51.166051 L 135.65625,51.166051 L 132.51562,59.462926 L 131.20312,59.462926 z M 136.90625,49.626988 L 136.90625,48.009801 L 138.3125,48.009801 L 138.3125,49.626988 L 136.90625,49.626988 z M 136.90625,59.462926 L 136.90625,51.166051 L 138.3125,51.166051 L 138.3125,59.462926 L 136.90625,59.462926 z M 145.875,56.423863 L 147.25781,56.603551 C 147.10676,57.556678 146.72004,58.302771 146.09766,58.841832 C 145.47525,59.380894 144.71093,59.650425 143.80469,59.650426 C 142.66927,59.650425 141.75651,59.279332 141.06641,58.537144 C 140.3763,57.794959 140.03125,56.731158 140.03125,55.345738 C 140.03125,54.44991 140.17969,53.666056 140.47656,52.994176 C 140.77344,52.322308 141.22526,51.818402 141.83203,51.482457 C 142.4388,51.146528 143.09895,50.978559 143.8125,50.978551 C 144.71354,50.978559 145.45051,51.206423 146.02344,51.662144 C 146.59635,52.117881 146.96353,52.765016 147.125,53.603551 L 145.75781,53.814488 C 145.6276,53.257203 145.39713,52.837932 145.06641,52.556676 C 144.73567,52.275433 144.33593,52.134808 143.86719,52.134801 C 143.15885,52.134808 142.58333,52.388714 142.14062,52.896519 C 141.69791,53.404338 141.47656,54.207723 141.47656,55.306676 C 141.47656,56.421262 141.6901,57.231157 142.11719,57.736363 C 142.54427,58.241573 143.10156,58.494177 143.78906,58.494176 C 144.34114,58.494177 144.80208,58.324906 145.17188,57.986363 C 145.54166,57.647823 145.77604,57.12699 145.875,56.423863 L 145.875,56.423863 z M 154.14062,56.791051 L 155.59375,56.970738 C 155.36458,57.819698 154.9401,58.478552 154.32031,58.947301 C 153.70051,59.416051 152.90885,59.650425 151.94531,59.650426 C 150.73177,59.650425 149.76953,59.276728 149.05859,58.529332 C 148.34766,57.781938 147.99219,56.733762 147.99219,55.384801 C 147.99219,53.988973 148.35156,52.905641 149.07031,52.134801 C 149.78906,51.363975 150.72135,50.978559 151.86719,50.978551 C 152.97656,50.978559 153.88281,51.356163 154.58594,52.111363 C 155.28905,52.866578 155.64062,53.929077 155.64062,55.298863 C 155.64062,55.382201 155.63801,55.5072 155.63281,55.673863 L 149.44531,55.673863 C 149.49739,56.585324 149.75521,57.28324 150.21875,57.767613 C 150.68229,58.251989 151.26041,58.494177 151.95312,58.494176 C 152.46874,58.494177 152.90885,58.35876 153.27344,58.087926 C 153.63801,57.817094 153.92708,57.384803 154.14062,56.791051 L 154.14062,56.791051 z M 149.52344,54.517613 L 154.15625,54.517613 C 154.09374,53.819702 153.91666,53.296265 153.625,52.947301 C 153.17708,52.405641 152.59635,52.134808 151.88281,52.134801 C 151.23698,52.134808 150.69401,52.350954 150.25391,52.783238 C 149.8138,53.215536 149.57031,53.79366 149.52344,54.517613 L 149.52344,54.517613 z M 161.92188,59.462926 L 161.92188,48.009801 L 163.4375,48.009801 L 163.4375,58.111363 L 169.07812,58.111363 L 169.07812,59.462926 L 161.92188,59.462926 z M 176.125,58.439488 C 175.60416,58.882197 175.10286,59.194697 174.62109,59.376988 C 174.13932,59.55928 173.62239,59.650425 173.07031,59.650426 C 172.15885,59.650425 171.45833,59.427769 170.96875,58.982457 C 170.47917,58.537145 170.23437,57.968135 170.23438,57.275426 C 170.23437,56.869178 170.32682,56.498085 170.51172,56.162144 C 170.69661,55.826211 170.9388,55.55668 171.23828,55.353551 C 171.53776,55.15043 171.875,54.996784 172.25,54.892613 C 172.52604,54.819701 172.94271,54.749389 173.5,54.681676 C 174.63541,54.546264 175.47135,54.384806 176.00781,54.197301 C 176.01301,54.004598 176.01562,53.882202 176.01562,53.830113 C 176.01562,53.257203 175.88281,52.853557 175.61719,52.619176 C 175.25781,52.301474 174.72395,52.14262 174.01562,52.142613 C 173.35416,52.14262 172.86588,52.258506 172.55078,52.490269 C 172.23567,52.722047 172.0026,53.132203 171.85156,53.720738 L 170.47656,53.533238 C 170.60156,52.944703 170.80729,52.469443 171.09375,52.107457 C 171.38021,51.745485 171.79427,51.46684 172.33594,51.271519 C 172.8776,51.076215 173.5052,50.978559 174.21875,50.978551 C 174.92708,50.978559 175.5026,51.061892 175.94531,51.228551 C 176.38801,51.395225 176.71353,51.604861 176.92188,51.857457 C 177.1302,52.110068 177.27603,52.429078 177.35938,52.814488 C 177.40624,53.054078 177.42968,53.486369 177.42969,54.111363 L 177.42969,55.986363 C 177.42968,57.293657 177.45963,58.120479 177.51953,58.466832 C 177.57942,58.813187 177.69791,59.145218 177.875,59.462926 L 176.40625,59.462926 C 176.26041,59.171259 176.16666,58.830114 176.125,58.439488 L 176.125,58.439488 z M 176.00781,55.298863 C 175.49739,55.5072 174.73177,55.684284 173.71094,55.830113 C 173.13281,55.91345 172.72396,56.0072 172.48438,56.111363 C 172.24479,56.215533 172.05989,56.367877 171.92969,56.568394 C 171.79948,56.768918 171.73437,56.991574 171.73438,57.236363 C 171.73437,57.611365 171.8763,57.923865 172.16016,58.173863 C 172.44401,58.423864 172.85937,58.548864 173.40625,58.548863 C 173.94791,58.548864 174.42968,58.430375 174.85156,58.193394 C 175.27343,57.956417 175.58333,57.632198 175.78125,57.220738 C 175.93229,56.903032 176.00781,56.434283 176.00781,55.814488 L 176.00781,55.298863 z M 179.55469,62.658238 L 179.39844,61.337926 C 179.70573,61.421257 179.97396,61.462924 180.20312,61.462926 C 180.51562,61.462924 180.76562,61.41084 180.95312,61.306676 C 181.14062,61.202507 181.29427,61.056674 181.41406,60.869176 C 181.5026,60.728549 181.64583,60.379591 181.84375,59.822301 C 181.86979,59.744175 181.91145,59.629592 181.96875,59.478551 L 178.82031,51.166051 L 180.33594,51.166051 L 182.0625,55.970738 C 182.28645,56.580116 182.48698,57.22074 182.66406,57.892613 C 182.82552,57.246782 183.01822,56.616574 183.24219,56.001988 L 185.01562,51.166051 L 186.42188,51.166051 L 183.26562,59.603551 C 182.92708,60.515008 182.66406,61.142611 182.47656,61.486363 C 182.22656,61.949902 181.9401,62.289746 181.61719,62.505894 C 181.29427,62.722037 180.90885,62.83011 180.46094,62.830113 C 180.1901,62.83011 179.88802,62.772818 179.55469,62.658238 L 179.55469,62.658238 z M 193.29688,56.791051 L 194.75,56.970738 C 194.52083,57.819698 194.09635,58.478552 193.47656,58.947301 C 192.85676,59.416051 192.0651,59.650425 191.10156,59.650426 C 189.88802,59.650425 188.92578,59.276728 188.21484,58.529332 C 187.50391,57.781938 187.14844,56.733762 187.14844,55.384801 C 187.14844,53.988973 187.50781,52.905641 188.22656,52.134801 C 188.94531,51.363975 189.8776,50.978559 191.02344,50.978551 C 192.13281,50.978559 193.03906,51.356163 193.74219,52.111363 C 194.4453,52.866578 194.79687,53.929077 194.79688,55.298863 C 194.79687,55.382201 194.79426,55.5072 194.78906,55.673863 L 188.60156,55.673863 C 188.65364,56.585324 188.91146,57.28324 189.375,57.767613 C 189.83854,58.251989 190.41666,58.494177 191.10938,58.494176 C 191.62499,58.494177 192.0651,58.35876 192.42969,58.087926 C 192.79426,57.817094 193.08333,57.384803 193.29688,56.791051 L 193.29688,56.791051 z M 188.67969,54.517613 L 193.3125,54.517613 C 193.24999,53.819702 193.07291,53.296265 192.78125,52.947301 C 192.33333,52.405641 191.7526,52.134808 191.03906,52.134801 C 190.39323,52.134808 189.85026,52.350954 189.41016,52.783238 C 188.97005,53.215536 188.72656,53.79366 188.67969,54.517613 L 188.67969,54.517613 z M 196.50781,59.462926 L 196.50781,51.166051 L 197.77344,51.166051 L 197.77344,52.423863 C 198.09635,51.835329 198.39453,51.447309 198.66797,51.259801 C 198.9414,51.072309 199.24218,50.978559 199.57031,50.978551 C 200.04427,50.978559 200.52604,51.129601 201.01562,51.431676 L 200.53125,52.736363 C 200.1875,52.533245 199.84375,52.431683 199.5,52.431676 C 199.1927,52.431683 198.91666,52.52413 198.67188,52.709019 C 198.42708,52.893922 198.2526,53.150432 198.14844,53.478551 C 197.99218,53.978556 197.91406,54.525431 197.91406,55.119176 L 197.91406,59.462926 L 196.50781,59.462926 z"
     id="flowRoot4240"
     sodipodi:nodetypes="cccssssssssccccssssssccccsssssssscccsssssssccccccssscssccccssssccccssssccccsssssssscssssccssssssccscccccssssssssccccccccccccccccssssccccsssscccccsssssssssssssssssccssssssssssssssccccssssssssccsssccccsssccccccssccssscccccccccccccccccccccccccssssssssccsssssssccccssssssssccsssccccsssccccccccccsssssssscssssccssssssccscccccssssssssccccsssscccccccccsssccccssssssssccsssccccsssccccccssccsssccc" />
  <path
     transform="translate(-16.846055,486.2047)"
     style="font-size:20px;font-style:normal;font-weight:normal;fill:#000000;fill-opacity:1;stroke:none;stroke-width:1px;stroke-linecap:butt;stroke-linejoin:miter;stroke-opacity:1;font-family:Bitstream Vera Sans"
     d="M 43.257812,59.462926 L 47.65625,48.009801 L 49.289062,48.009801 L 53.976562,59.462926 L 52.25,59.462926 L 50.914062,55.994176 L 46.125,55.994176 L 44.867188,59.462926 L 43.257812,59.462926 z M 46.5625,54.759801 L 50.445312,54.759801 L 49.25,51.587926 C 48.885411,50.624393 48.614578,49.832727 48.4375,49.212926 C 48.291662,49.94731 48.085933,50.676476 47.820312,51.400426 L 46.5625,54.759801 z M 55.023438,62.642613 L 55.023438,51.166051 L 56.304688,51.166051 L 56.304688,52.244176 C 56.606768,51.822308 56.947914,51.505902 57.328125,51.294957 C 57.70833,51.084028 58.169267,50.978559 58.710938,50.978551 C 59.419265,50.978559 60.044265,51.160851 60.585938,51.525426 C 61.127597,51.890017 61.536451,52.404339 61.8125,53.068394 C 62.088534,53.732463 62.226554,54.460326 62.226562,55.251988 C 62.226554,56.10095 62.074211,56.865272 61.769531,57.544957 C 61.464836,58.224646 61.022128,58.745478 60.441406,59.107457 C 59.860671,59.469436 59.249995,59.650425 58.609375,59.650426 C 58.140621,59.650425 57.720048,59.551467 57.347656,59.353551 C 56.975257,59.155634 56.669268,58.905635 56.429688,58.603551 L 56.429688,62.642613 L 55.023438,62.642613 z M 56.296875,55.411697 C 56.296873,56.479408 56.513018,57.218136 56.945312,57.728551 C 57.377601,58.238969 57.901038,58.494177 58.515625,58.494176 C 59.14062,58.494177 59.675776,58.229854 60.121094,57.701207 C 60.5664,57.172563 60.789056,56.353554 60.789062,55.244176 C 60.789056,54.186889 60.571608,53.395223 60.136719,52.869176 C 59.701817,52.343141 59.182286,52.080121 58.578125,52.080113 C 57.979163,52.080121 57.449215,52.360068 56.988281,52.919957 C 56.527341,53.479859 56.296873,54.29366 56.296875,55.361363 L 56.296875,55.411697 z M 63.929688,62.642613 L 63.929688,51.166051 L 65.210938,51.166051 L 65.210938,52.244176 C 65.513018,51.822308 65.854164,51.505902 66.234375,51.294957 C 66.61458,51.084028 67.075517,50.978559 67.617188,50.978551 C 68.325515,50.978559 68.950515,51.160851 69.492188,51.525426 C 70.033847,51.890017 70.442701,52.404339 70.71875,53.068394 C 70.994784,53.732463 71.132804,54.460326 71.132812,55.251988 C 71.132804,56.10095 70.980461,56.865272 70.675781,57.544957 C 70.371086,58.224646 69.928378,58.745478 69.347656,59.107457 C 68.766921,59.469436 68.156245,59.650425 67.515625,59.650426 C 67.046871,59.650425 66.626298,59.551467 66.253906,59.353551 C 65.881507,59.155634 65.575518,58.905635 65.335938,58.603551 L 65.335938,62.642613 L 63.929688,62.642613 z M 65.203125,55.361363 C 65.203123,56.429074 65.419268,57.218136 65.851562,57.728551 C 66.283851,58.238969 66.807288,58.494177 67.421875,58.494176 C 68.04687,58.494177 68.582026,58.229854 69.027344,57.701207 C 69.47265,57.172563 69.695306,56.353554 69.695312,55.244176 C 69.695306,54.186889 69.477858,53.395223 69.042969,52.869176 C 68.608067,52.343141 68.088536,52.080121 67.484375,52.080113 C 66.885413,52.080121 66.355465,52.360068 65.894531,52.919957 C 65.433591,53.479859 65.203123,54.29366 65.203125,55.361363 L 65.203125,55.361363 z M 72.804688,59.462926 L 72.804688,48.009801 L 74.210938,48.009801 L 74.210938,59.462926 L 72.804688,59.462926 z M 76.40625,49.626988 L 76.40625,48.009801 L 77.8125,48.009801 L 77.8125,49.626988 L 76.40625,49.626988 z M 76.40625,59.462926 L 76.40625,51.166051 L 77.8125,51.166051 L 77.8125,59.462926 L 76.40625,59.462926 z M 85.375,56.423863 L 86.757812,56.603551 C 86.606763,57.556678 86.220045,58.302771 85.597656,58.841832 C 84.975254,59.380894 84.210932,59.650425 83.304688,59.650426 C 82.169268,59.650425 81.256508,59.279332 80.566406,58.537144 C 79.876301,57.794959 79.531249,56.731158 79.53125,55.345738 C 79.531249,54.44991 79.679687,53.666056 79.976562,52.994176 C 80.273436,52.322308 80.725259,51.818402 81.332031,51.482457 C 81.938799,51.146528 82.598955,50.978559 83.3125,50.978551 C 84.213536,50.978559 84.950515,51.206423 85.523438,51.662144 C 86.096347,52.117881 86.463534,52.765016 86.625,53.603551 L 85.257812,53.814488 C 85.127598,53.257203 84.897129,52.837932 84.566406,52.556676 C 84.235672,52.275433 83.835933,52.134808 83.367188,52.134801 C 82.65885,52.134808 82.08333,52.388714 81.640625,52.896519 C 81.197914,53.404338 80.97656,54.207723 80.976562,55.306676 C 80.97656,56.421262 81.190102,57.231157 81.617188,57.736363 C 82.044268,58.241573 82.601559,58.494177 83.289062,58.494176 C 83.841141,58.494177 84.302078,58.324906 84.671875,57.986363 C 85.041661,57.647823 85.276035,57.12699 85.375,56.423863 L 85.375,56.423863 z M 93.375,58.439488 C 92.854161,58.882197 92.352859,59.194697 91.871094,59.376988 C 91.389318,59.55928 90.872392,59.650425 90.320312,59.650426 C 89.408852,59.650425 88.708332,59.427769 88.21875,58.982457 C 87.729166,58.537145 87.484374,57.968135 87.484375,57.275426 C 87.484374,56.869178 87.576822,56.498085 87.761719,56.162144 C 87.946614,55.826211 88.188801,55.55668 88.488281,55.353551 C 88.787759,55.15043 89.124998,54.996784 89.5,54.892613 C 89.776039,54.819701 90.192705,54.749389 90.75,54.681676 C 91.885412,54.546264 92.721348,54.384806 93.257812,54.197301 C 93.263014,54.004598 93.265619,53.882202 93.265625,53.830113 C 93.265619,53.257203 93.132806,52.853557 92.867188,52.619176 C 92.507807,52.301474 91.973953,52.14262 91.265625,52.142613 C 90.604163,52.14262 90.115882,52.258506 89.800781,52.490269 C 89.485675,52.722047 89.252602,53.132203 89.101562,53.720738 L 87.726562,53.533238 C 87.851562,52.944703 88.057291,52.469443 88.34375,52.107457 C 88.630207,51.745485 89.044269,51.46684 89.585938,51.271519 C 90.127601,51.076215 90.755204,50.978559 91.46875,50.978551 C 92.177078,50.978559 92.752598,51.061892 93.195312,51.228551 C 93.638014,51.395225 93.963535,51.604861 94.171875,51.857457 C 94.380201,52.110068 94.526034,52.429078 94.609375,52.814488 C 94.656242,53.054078 94.67968,53.486369 94.679688,54.111363 L 94.679688,55.986363 C 94.67968,57.293657 94.709628,58.120479 94.769531,58.466832 C 94.829419,58.813187 94.947909,59.145218 95.125,59.462926 L 93.65625,59.462926 C 93.51041,59.171259 93.41666,58.830114 93.375,58.439488 L 93.375,58.439488 z M 93.257812,55.298863 C 92.74739,55.5072 91.981766,55.684284 90.960938,55.830113 C 90.382809,55.91345 89.973955,56.0072 89.734375,56.111363 C 89.494789,56.215533 89.309893,56.367877 89.179688,56.568394 C 89.049477,56.768918 88.984373,56.991574 88.984375,57.236363 C 88.984373,57.611365 89.1263,57.923865 89.410156,58.173863 C 89.694008,58.423864 90.109372,58.548864 90.65625,58.548863 C 91.197912,58.548864 91.679683,58.430375 92.101562,58.193394 C 92.523432,57.956417 92.833327,57.632198 93.03125,57.220738 C 93.182285,56.903032 93.257806,56.434283 93.257812,55.814488 L 93.257812,55.298863 z M 99.9375,58.205113 L 100.14062,59.447301 C 99.744788,59.530634 99.390621,59.572301 99.078125,59.572301 C 98.567706,59.572301 98.171873,59.491571 97.890625,59.330113 C 97.609373,59.168655 97.411457,58.956416 97.296875,58.693394 C 97.18229,58.430375 97.124999,57.87699 97.125,57.033238 L 97.125,52.259801 L 96.09375,52.259801 L 96.09375,51.166051 L 97.125,51.166051 L 97.125,49.111363 L 98.523438,48.267613 L 98.523438,51.166051 L 99.9375,51.166051 L 99.9375,52.259801 L 98.523438,52.259801 L 98.523438,57.111363 C 98.523435,57.512407 98.548174,57.770219 98.597656,57.884801 C 98.647133,57.999385 98.727862,58.090531 98.839844,58.158238 C 98.95182,58.225948 99.111976,58.259802 99.320312,58.259801 C 99.476559,58.259802 99.682288,58.241573 99.9375,58.205113 L 99.9375,58.205113 z M 101.3125,49.626988 L 101.3125,48.009801 L 102.71875,48.009801 L 102.71875,49.626988 L 101.3125,49.626988 z M 101.3125,59.462926 L 101.3125,51.166051 L 102.71875,51.166051 L 102.71875,59.462926 L 101.3125,59.462926 z M 104.34375,55.314488 C 104.34375,53.778035 104.77083,52.640016 105.625,51.900426 C 106.33854,51.28585 107.20833,50.978559 108.23438,50.978551 C 109.37499,50.978559 110.30729,51.352257 111.03125,52.099644 C 111.7552,52.847047 112.11718,53.879598 112.11719,55.197301 C 112.11718,56.265012 111.95702,57.104855 111.63672,57.716832 C 111.3164,58.328812 110.85025,58.804072 110.23828,59.142613 C 109.6263,59.481155 108.95833,59.650425 108.23438,59.650426 C 107.07291,59.650425 106.13411,59.27803 105.41797,58.533238 C 104.70182,57.788448 104.34375,56.715533 104.34375,55.314488 L 104.34375,55.314488 z M 105.78906,55.314488 C 105.78906,56.376991 106.02083,57.172563 106.48438,57.701207 C 106.94791,58.229854 107.53125,58.494177 108.23438,58.494176 C 108.93229,58.494177 109.51302,58.228552 109.97656,57.697301 C 110.4401,57.166053 110.67187,56.356158 110.67188,55.267613 C 110.67187,54.241577 110.4388,53.464234 109.97266,52.935582 C 109.5065,52.406943 108.92708,52.14262 108.23438,52.142613 C 107.53125,52.14262 106.94791,52.405641 106.48438,52.931676 C 106.02083,53.457723 105.78906,54.251993 105.78906,55.314488 L 105.78906,55.314488 z M 113.77344,59.462926 L 113.77344,51.166051 L 115.03906,51.166051 L 115.03906,52.345738 C 115.64843,51.434288 116.52864,50.978559 117.67969,50.978551 C 118.17968,50.978559 118.63932,51.068403 119.05859,51.248082 C 119.47786,51.427777 119.79166,51.663454 120,51.955113 C 120.20833,52.246787 120.35416,52.593141 120.4375,52.994176 C 120.48958,53.254599 120.51562,53.710327 120.51562,54.361363 L 120.51562,59.462926 L 119.10938,59.462926 L 119.10938,54.416051 C 119.10937,53.84314 119.05468,53.414755 118.94531,53.130894 C 118.83593,52.847047 118.64192,52.620485 118.36328,52.451207 C 118.08463,52.281943 117.75781,52.197308 117.38281,52.197301 C 116.78385,52.197308 116.26692,52.387412 115.83203,52.767613 C 115.39713,53.147828 115.17969,53.869181 115.17969,54.931676 L 115.17969,59.462926 L 113.77344,59.462926 z M 126.78125,55.783238 L 128.21094,55.658238 C 128.27864,56.231158 128.4362,56.70121 128.68359,57.068394 C 128.93099,57.435584 129.3151,57.732459 129.83594,57.959019 C 130.35677,58.185583 130.9427,58.298864 131.59375,58.298863 C 132.17187,58.298864 132.68229,58.212927 133.125,58.041051 C 133.5677,57.869177 133.89713,57.6335 134.11328,57.334019 C 134.32942,57.034543 134.43749,56.70772 134.4375,56.353551 C 134.43749,55.994179 134.33333,55.680377 134.125,55.412144 C 133.91666,55.14392 133.57291,54.918659 133.09375,54.736363 C 132.78645,54.616576 132.10676,54.430379 131.05469,54.177769 C 130.0026,53.925171 129.26562,53.68689 128.84375,53.462926 C 128.29687,53.176474 127.88932,52.821005 127.62109,52.396519 C 127.35286,51.972048 127.21875,51.496788 127.21875,50.970738 C 127.21875,50.392622 127.38281,49.852258 127.71094,49.349644 C 128.03906,48.847051 128.51823,48.465541 129.14844,48.205113 C 129.77864,47.944708 130.47916,47.8145 131.25,47.814488 C 132.09895,47.8145 132.84765,47.951218 133.49609,48.224644 C 134.14452,48.498093 134.64322,48.900436 134.99219,49.431676 C 135.34114,49.962935 135.52864,50.564497 135.55469,51.236363 L 134.10156,51.345738 C 134.02343,50.621789 133.75911,50.074914 133.30859,49.705113 C 132.85807,49.335332 132.1927,49.150436 131.3125,49.150426 C 130.39583,49.150436 129.72786,49.318405 129.30859,49.654332 C 128.88932,49.990279 128.67968,50.395226 128.67969,50.869176 C 128.67968,51.280642 128.82812,51.619183 129.125,51.884801 C 129.41666,52.150433 130.17838,52.422568 131.41016,52.701207 C 132.64192,52.979859 133.48697,53.223349 133.94531,53.431676 C 134.61197,53.738973 135.10416,54.128296 135.42188,54.599644 C 135.73957,55.071003 135.89843,55.613971 135.89844,56.228551 C 135.89843,56.837928 135.72395,57.412146 135.375,57.951207 C 135.02603,58.49027 134.52473,58.909541 133.87109,59.209019 C 133.21744,59.508498 132.48176,59.658238 131.66406,59.658238 C 130.6276,59.658238 129.75911,59.507196 129.05859,59.205113 C 128.35807,58.90303 127.80859,58.448604 127.41016,57.841832 C 127.01172,57.235063 126.80208,56.548866 126.78125,55.783238 L 126.78125,55.783238 z M 143.48438,56.791051 L 144.9375,56.970738 C 144.70833,57.819698 144.28385,58.478552 143.66406,58.947301 C 143.04426,59.416051 142.2526,59.650425 141.28906,59.650426 C 140.07552,59.650425 139.11328,59.276728 138.40234,58.529332 C 137.69141,57.781938 137.33594,56.733762 137.33594,55.384801 C 137.33594,53.988973 137.69531,52.905641 138.41406,52.134801 C 139.13281,51.363975 140.0651,50.978559 141.21094,50.978551 C 142.32031,50.978559 143.22656,51.356163 143.92969,52.111363 C 144.6328,52.866578 144.98437,53.929077 144.98438,55.298863 C 144.98437,55.382201 144.98176,55.5072 144.97656,55.673863 L 138.78906,55.673863 C 138.84114,56.585324 139.09896,57.28324 139.5625,57.767613 C 140.02604,58.251989 140.60416,58.494177 141.29688,58.494176 C 141.81249,58.494177 142.2526,58.35876 142.61719,58.087926 C 142.98176,57.817094 143.27083,57.384803 143.48438,56.791051 L 143.48438,56.791051 z M 138.86719,54.517613 L 143.5,54.517613 C 143.43749,53.819702 143.26041,53.296265 142.96875,52.947301 C 142.52083,52.405641 141.9401,52.134808 141.22656,52.134801 C 140.58073,52.134808 140.03776,52.350954 139.59766,52.783238 C 139.15755,53.215536 138.91406,53.79366 138.86719,54.517613 L 138.86719,54.517613 z M 146.69531,59.462926 L 146.69531,51.166051 L 147.96094,51.166051 L 147.96094,52.423863 C 148.28385,51.835329 148.58203,51.447309 148.85547,51.259801 C 149.1289,51.072309 149.42968,50.978559 149.75781,50.978551 C 150.23177,50.978559 150.71354,51.129601 151.20312,51.431676 L 150.71875,52.736363 C 150.375,52.533245 150.03125,52.431683 149.6875,52.431676 C 149.3802,52.431683 149.10416,52.52413 148.85938,52.709019 C 148.61458,52.893922 148.4401,53.150432 148.33594,53.478551 C 148.17968,53.978556 148.10156,54.525431 148.10156,55.119176 L 148.10156,59.462926 L 146.69531,59.462926 z M 154.35938,59.462926 L 151.20312,51.166051 L 152.6875,51.166051 L 154.46875,56.134801 C 154.66145,56.671262 154.83854,57.228553 155,57.806676 C 155.125,57.369178 155.29947,56.843137 155.52344,56.228551 L 157.36719,51.166051 L 158.8125,51.166051 L 155.67188,59.462926 L 154.35938,59.462926 z M 160.0625,49.626988 L 160.0625,48.009801 L 161.46875,48.009801 L 161.46875,49.626988 L 160.0625,49.626988 z M 160.0625,59.462926 L 160.0625,51.166051 L 161.46875,51.166051 L 161.46875,59.462926 L 160.0625,59.462926 z M 169.03125,56.423863 L 170.41406,56.603551 C 170.26301,57.556678 169.87629,58.302771 169.25391,58.841832 C 168.6315,59.380894 167.86718,59.650425 166.96094,59.650426 C 165.82552,59.650425 164.91276,59.279332 164.22266,58.537144 C 163.53255,57.794959 163.1875,56.731158 163.1875,55.345738 C 163.1875,54.44991 163.33594,53.666056 163.63281,52.994176 C 163.92969,52.322308 164.38151,51.818402 164.98828,51.482457 C 165.59505,51.146528 166.2552,50.978559 166.96875,50.978551 C 167.86979,50.978559 168.60676,51.206423 169.17969,51.662144 C 169.7526,52.117881 170.11978,52.765016 170.28125,53.603551 L 168.91406,53.814488 C 168.78385,53.257203 168.55338,52.837932 168.22266,52.556676 C 167.89192,52.275433 167.49218,52.134808 167.02344,52.134801 C 166.3151,52.134808 165.73958,52.388714 165.29688,52.896519 C 164.85416,53.404338 164.63281,54.207723 164.63281,55.306676 C 164.63281,56.421262 164.84635,57.231157 165.27344,57.736363 C 165.70052,58.241573 166.25781,58.494177 166.94531,58.494176 C 167.49739,58.494177 167.95833,58.324906 168.32812,57.986363 C 168.69791,57.647823 168.93229,57.12699 169.03125,56.423863 L 169.03125,56.423863 z M 177.29688,56.791051 L 178.75,56.970738 C 178.52083,57.819698 178.09635,58.478552 177.47656,58.947301 C 176.85676,59.416051 176.0651,59.650425 175.10156,59.650426 C 173.88802,59.650425 172.92578,59.276728 172.21484,58.529332 C 171.50391,57.781938 171.14844,56.733762 171.14844,55.384801 C 171.14844,53.988973 171.50781,52.905641 172.22656,52.134801 C 172.94531,51.363975 173.8776,50.978559 175.02344,50.978551 C 176.13281,50.978559 177.03906,51.356163 177.74219,52.111363 C 178.4453,52.866578 178.79687,53.929077 178.79688,55.298863 C 178.79687,55.382201 178.79426,55.5072 178.78906,55.673863 L 172.60156,55.673863 C 172.65364,56.585324 172.91146,57.28324 173.375,57.767613 C 173.83854,58.251989 174.41666,58.494177 175.10938,58.494176 C 175.62499,58.494177 176.0651,58.35876 176.42969,58.087926 C 176.79426,57.817094 177.08333,57.384803 177.29688,56.791051 L 177.29688,56.791051 z M 172.67969,54.517613 L 177.3125,54.517613 C 177.24999,53.819702 177.07291,53.296265 176.78125,52.947301 C 176.33333,52.405641 175.7526,52.134808 175.03906,52.134801 C 174.39323,52.134808 173.85026,52.350954 173.41016,52.783238 C 172.97005,53.215536 172.72656,53.79366 172.67969,54.517613 L 172.67969,54.517613 z M 185.07812,59.462926 L 185.07812,48.009801 L 186.59375,48.009801 L 186.59375,58.111363 L 192.23438,58.111363 L 192.23438,59.462926 L 185.07812,59.462926 z M 199.28125,58.439488 C 198.76041,58.882197 198.25911,59.194697 197.77734,59.376988 C 197.29557,59.55928 196.77864,59.650425 196.22656,59.650426 C 195.3151,59.650425 194.61458,59.427769 194.125,58.982457 C 193.63542,58.537145 193.39062,57.968135 193.39062,57.275426 C 193.39062,56.869178 193.48307,56.498085 193.66797,56.162144 C 193.85286,55.826211 194.09505,55.55668 194.39453,55.353551 C 194.69401,55.15043 195.03125,54.996784 195.40625,54.892613 C 195.68229,54.819701 196.09896,54.749389 196.65625,54.681676 C 197.79166,54.546264 198.6276,54.384806 199.16406,54.197301 C 199.16926,54.004598 199.17187,53.882202 199.17188,53.830113 C 199.17187,53.257203 199.03906,52.853557 198.77344,52.619176 C 198.41406,52.301474 197.8802,52.14262 197.17188,52.142613 C 196.51041,52.14262 196.02213,52.258506 195.70703,52.490269 C 195.39192,52.722047 195.15885,53.132203 195.00781,53.720738 L 193.63281,53.533238 C 193.75781,52.944703 193.96354,52.469443 194.25,52.107457 C 194.53646,51.745485 194.95052,51.46684 195.49219,51.271519 C 196.03385,51.076215 196.66145,50.978559 197.375,50.978551 C 198.08333,50.978559 198.65885,51.061892 199.10156,51.228551 C 199.54426,51.395225 199.86978,51.604861 200.07812,51.857457 C 200.28645,52.110068 200.43228,52.429078 200.51562,52.814488 C 200.56249,53.054078 200.58593,53.486369 200.58594,54.111363 L 200.58594,55.986363 C 200.58593,57.293657 200.61588,58.120479 200.67578,58.466832 C 200.73567,58.813187 200.85416,59.145218 201.03125,59.462926 L 199.5625,59.462926 C 199.41666,59.171259 199.32291,58.830114 199.28125,58.439488 L 199.28125,58.439488 z M 199.16406,55.298863 C 198.65364,55.5072 197.88802,55.684284 196.86719,55.830113 C 196.28906,55.91345 195.88021,56.0072 195.64062,56.111363 C 195.40104,56.215533 195.21614,56.367877 195.08594,56.568394 C 194.95573,56.768918 194.89062,56.991574 194.89062,57.236363 C 194.89062,57.611365 195.03255,57.923865 195.31641,58.173863 C 195.60026,58.423864 196.01562,58.548864 196.5625,58.548863 C 197.10416,58.548864 197.58593,58.430375 198.00781,58.193394 C 198.42968,57.956417 198.73958,57.632198 198.9375,57.220738 C 199.08854,56.903032 199.16406,56.434283 199.16406,55.814488 L 199.16406,55.298863 z M 202.71094,62.658238 L 202.55469,61.337926 C 202.86198,61.421257 203.13021,61.462924 203.35938,61.462926 C 203.67187,61.462924 203.92187,61.41084 204.10938,61.306676 C 204.29687,61.202507 204.45052,61.056674 204.57031,60.869176 C 204.65885,60.728549 204.80208,60.379591 205,59.822301 C 205.02604,59.744175 205.0677,59.629592 205.125,59.478551 L 201.97656,51.166051 L 203.49219,51.166051 L 205.21875,55.970738 C 205.4427,56.580116 205.64323,57.22074 205.82031,57.892613 C 205.98177,57.246782 206.17447,56.616574 206.39844,56.001988 L 208.17188,51.166051 L 209.57812,51.166051 L 206.42188,59.603551 C 206.08333,60.515008 205.82031,61.142611 205.63281,61.486363 C 205.38281,61.949902 205.09635,62.289746 204.77344,62.505894 C 204.45052,62.722037 204.0651,62.83011 203.61719,62.830113 C 203.34635,62.83011 203.04427,62.772818 202.71094,62.658238 L 202.71094,62.658238 z M 216.45312,56.791051 L 217.90625,56.970738 C 217.67708,57.819698 217.2526,58.478552 216.63281,58.947301 C 216.01301,59.416051 215.22135,59.650425 214.25781,59.650426 C 213.04427,59.650425 212.08203,59.276728 211.37109,58.529332 C 210.66016,57.781938 210.30469,56.733762 210.30469,55.384801 C 210.30469,53.988973 210.66406,52.905641 211.38281,52.134801 C 212.10156,51.363975 213.03385,50.978559 214.17969,50.978551 C 215.28906,50.978559 216.19531,51.356163 216.89844,52.111363 C 217.60155,52.866578 217.95312,53.929077 217.95312,55.298863 C 217.95312,55.382201 217.95051,55.5072 217.94531,55.673863 L 211.75781,55.673863 C 211.80989,56.585324 212.06771,57.28324 212.53125,57.767613 C 212.99479,58.251989 213.57291,58.494177 214.26562,58.494176 C 214.78124,58.494177 215.22135,58.35876 215.58594,58.087926 C 215.95051,57.817094 216.23958,57.384803 216.45312,56.791051 L 216.45312,56.791051 z M 211.83594,54.517613 L 216.46875,54.517613 C 216.40624,53.819702 216.22916,53.296265 215.9375,52.947301 C 215.48958,52.405641 214.90885,52.134808 214.19531,52.134801 C 213.54948,52.134808 213.00651,52.350954 212.56641,52.783238 C 212.1263,53.215536 211.88281,53.79366 211.83594,54.517613 L 211.83594,54.517613 z M 219.66406,59.462926 L 219.66406,51.166051 L 220.92969,51.166051 L 220.92969,52.423863 C 221.2526,51.835329 221.55078,51.447309 221.82422,51.259801 C 222.09765,51.072309 222.39843,50.978559 222.72656,50.978551 C 223.20052,50.978559 223.68229,51.129601 224.17188,51.431676 L 223.6875,52.736363 C 223.34375,52.533245 223,52.431683 222.65625,52.431676 C 222.34895,52.431683 222.07291,52.52413 221.82812,52.709019 C 221.58333,52.893922 221.40885,53.150432 221.30469,53.478551 C 221.14843,53.978556 221.07031,54.525431 221.07031,55.119176 L 221.07031,59.462926 L 219.66406,59.462926 z"
     id="flowRoot4248"
     sodipodi:nodetypes="cccccccccccccccccccsssssssssccccsssssssccccccsssssssssccccssssssscccccccccccccccccccssssssssccssssssscccsssssssscssssccssssssccscccccssssssssccccsssccccccccccccssscccccccccccccsssssssscccsssssssccccccssssccccsssscccccsssssssssssssssssccssssssssssssssccccssssssssccsssccccsssccccccssccssscccccccccccccccccccccccccssssssssccsssssssccccssssssssccsssccccsssccccccccccsssssssscssssccssssssccscccccssssssssccccsssscccccccccsssccccssssssssccsssccccsssccccccssccsssccc" />
  <path
     style="fill:#000000;fill-rule:evenodd;stroke:none;stroke-width:1px;stroke-linecap:butt;stroke-linejoin:miter;stroke-opacity:1;fill-opacity:1"
     d="M 45.272075,284.13105 L 53.244515,278.72118 L 52.675055,288.97146 C 52.675055,288.97146 51.251405,286.97835 49.258295,285.5547 C 47.265185,284.13105 45.272075,284.41578 45.272075,284.13105 z"
     id="path3691"
     sodipodi:nodetypes="cccsc" />
</svg>
